# xmcd
#
# Track frame offsets:
#	150
#	17120
#	36340
#	54907
#	76207
#	93082
#	111020
#	133055
#	151932
#	176560
#
# Disc length: 2518 seconds
#
# Revision: 1
# Processed by: cddbd v1.4PL0 Copyright (c) Steve Scherf et al.
# Submitted via: EasyCDDAExtractor 5.0.6
#
DISCID=7109d40a
DTITLE=Rockabello - Crusader
DYEAR=1900
DGENRE=
TTITLE0=Rock And Roll Crusader
TTITLE1=Show You
TTITLE2=Say No To Drugs
TTITLE3=The Truth
TTITLE4=My My My
TTITLE5=Rock On
TTITLE6=Raw Sex
TTITLE7=Your Love
TTITLE8=Proud Mary
TTITLE9=Life Stream
EXTD=
EXTT0=
EXTT1=
EXTT2=
EXTT3=
EXTT4=
EXTT5=
EXTT6=
EXTT7=
EXTT8=
EXTT9=
PLAYORDER=
